<?xml version="1.0" encoding="UTF-8"?>
<svg xmlns="http://www.w3.org/2000/svg" width="720" height="720" viewBox="0 0 720 720" role="img" aria-label="OlfactiveEcho logo mark">
  <defs>
    <linearGradient id="oeGradient" x1="0%" y1="0%" x2="100%" y2="100%">
      <stop offset="0%" stop-color="#7C3AED"/>
      <stop offset="100%" stop-color="#06B6D4"/>
    </linearGradient>
    <filter id="softShadow" x="-20%" y="-20%" width="140%" height="140%">
      <feDropShadow dx="0" dy="6" stdDeviation="14" flood-opacity="0.18"/>
    </filter>
  </defs>

  <!-- Background transparent circle guide (not filled) -->
  <circle cx="360" cy="360" r="320" fill="none" stroke="url(#oeGradient)" stroke-opacity="0.08" stroke-width="4"/>

  <!-- Echo rings -->
  <g fill="none" stroke="url(#oeGradient)" stroke-linecap="round">
    <path d="M360 120
             a240 240 0 1 1 0 480
             a240 240 0 1 1 0 -480" stroke-width="10" opacity="0.18"/>
    <path d="M360 170
             a190 190 0 1 1 0 380
             a190 190 0 1 1 0 -380" stroke-width="10" opacity="0.28"/>
    <path d="M360 220
             a140 140 0 1 1 0 280
             a140 140 0 1 1 0 -280" stroke-width="10" opacity="0.45"/>
  </g>

  <!-- Perfume bottle -->
  <g filter="url(#softShadow)">
    <!-- Bottle body -->
    <rect x="250" y="275" rx="40" ry="40" width="220" height="250" fill="url(#oeGradient)"/>
    <!-- Bottle highlight -->
    <path d="M290 300 q40 -40 120 0 v160 q-80 60 -160 0 z" fill="white" opacity="0.18"/>
    <!-- Neck -->
    <rect x="310" y="245" width="100" height="40" rx="12" fill="url(#oeGradient)"/>
    <!-- Cap -->
    <rect x="295" y="215" width="130" height="28" rx="8" fill="#111827"/>
    <!-- Nozzle dot -->
    <circle cx="362" cy="260" r="4" fill="#FFFFFF" opacity="0.7"/>
  </g>

  <!-- OE monogram (cutout) -->
  <g>
    <path d="M340 365 a40 40 0 1 0 0 80 h40 v-20 h-40 a20 20 0 1 1 0 -40 h40 v-20z" fill="#FFFFFF" opacity="0.96"/>
    <path d="M420 365 h-40 v80 h40 a40 40 0 0 0 0 -80zm-20 20 h20 a20 20 0 0 1 0 40 h-20z" fill="#FFFFFF" opacity="0.96"/>
  </g>
</svg>
